<svg height="14in" viewBox="0 0 765 1260" width="8.5in" xmlns="http://www.w3.org/2000/svg" xmlns:xlink="http://www.w3.org/1999/xlink"><linearGradient id="a" gradientUnits="userSpaceOnUse" x1="512.00781" x2="297.04733" y1="392.233315" y2="675.076055"><stop offset="0" stop-color="#7a8597"/><stop offset="1" stop-color="#4e505d"/></linearGradient><path d="m181.36667 529.90785h407.77817v407.77817h-407.77817z" fill="none"/><g transform="matrix(.95194508 0 0 .95194508 18.693364 231.672438)"><circle cx="389" cy="523.48352" fill="url(#a)" r="191.1875"/><g fill="#fff"><path d="m465.47473 419.47319c0 1.23794-.71499 2.53398-2.49378 4.1264l-72.10997 57.76947c-3.03724 2.36064-8.31258 1.65054-8.31258-4.95168v-113.88839c0-6.60221 4.79499-7.39117 7.65478-4.95164l72.76777 57.76946c1.76529 1.49637 2.49378 2.88847 2.49378 4.12638z" fill-rule="evenodd"/><path d="m388.26953 400.23633c-72.1071.00064-130.56099 58.4554-130.56055 130.5625.00064 72.10634 58.45421 130.55991 130.56055 130.56055 63.34026-.0138 108.65285-46.66771 123.67914-97.41656.65204-2.20214.31566-3.37773-2.24242-4.2665l-23.45625-7.31499c-2.06204.071-3.25.00087-4.24023 3.375-15.13047 33.8047-48.30356 73.4812-94.10547 73.5-53.57528-.00083-97.00611-43.43253-97.00586-97.00781.002-53.57375 43.43211-97.00308 97.00586-97.00391.69893.0276 1.39753.0628 2.0957.10547v-35.0332c-.57668-.024-1.15352-.0442-1.73047-.0605z" stroke="#fff" stroke-linejoin="round" stroke-width="22.115385"/></g></g></svg>